<?xml version="1.0" encoding="utf-8"?>
<!-- Generator: Adobe Illustrator 27.5.0, SVG Export Plug-In . SVG Version: 6.00 Build 0)  -->
<svg version="1.1" xmlns="http://www.w3.org/2000/svg" xmlns:xlink="http://www.w3.org/1999/xlink" x="0px" y="0px"
	 viewBox="0 0 500 500" style="enable-background:new 0 0 500 500;" xml:space="preserve">
<g id="BACKGROUND">
	<rect x="0" y="0" style="fill:#C9E8FF;" width="500" height="499.998"/>
</g>
<g id="OBJECTS">
	<g>
		<g>
			<path style="fill:#FFFFFF;" d="M190.631,128.311l-48.242,21.766c-1.905,0.86-2.751,3.099-1.893,5.001l1.668,3.697l3.234-1.458
				c0.035-0.687,0.441-1.329,1.111-1.633c0.951-0.431,2.071-0.006,2.501,0.947c0.43,0.951,0.006,2.073-0.946,2.501
				c-0.67,0.302-1.422,0.182-1.959-0.249l-3.234,1.459l4.102,9.093l3.235-1.459c0.033-0.688,0.439-1.329,1.11-1.633
				c0.951-0.428,2.073-0.005,2.502,0.946c0.43,0.953,0.007,2.074-0.947,2.504c-0.669,0.301-1.42,0.179-1.958-0.249l-3.234,1.458
				l4.102,9.093l3.234-1.459c0.033-0.686,0.441-1.331,1.111-1.633c0.951-0.431,2.072-0.005,2.503,0.946
				c0.428,0.953,0.004,2.073-0.947,2.504c-0.671,0.302-1.421,0.18-1.959-0.249l-3.231,1.458l4.101,9.094l3.233-1.459
				c0.032-0.687,0.44-1.331,1.11-1.633c0.953-0.431,2.071-0.006,2.503,0.946c0.43,0.953,0.006,2.073-0.946,2.502
				c-0.671,0.303-1.421,0.181-1.96-0.248l-3.232,1.46l4.102,9.092l3.233-1.459c0.033-0.688,0.441-1.331,1.11-1.633
				c0.953-0.43,2.073-0.005,2.502,0.947c0.431,0.952,0.006,2.072-0.943,2.503c-0.672,0.302-1.424,0.182-1.961-0.249l-3.234,1.459
				l4.104,9.094l3.232-1.46c0.035-0.686,0.441-1.329,1.111-1.633c0.952-0.429,2.072-0.005,2.502,0.946
				c0.43,0.954,0.007,2.074-0.946,2.503c-0.669,0.302-1.422,0.182-1.959-0.248l-3.234,1.459l4.102,9.092l3.234-1.459
				c0.035-0.686,0.441-1.332,1.109-1.633c0.954-0.428,2.073-0.005,2.504,0.947c0.428,0.952,0.006,2.071-0.945,2.502
				c-0.671,0.303-1.422,0.18-1.96-0.249l-3.234,1.46l1.668,3.699c0.858,1.9,3.097,2.748,5.001,1.891l48.243-21.768
				c1.905-0.859,2.75-3.097,1.892-5.001l-32.903-72.924C194.773,128.3,192.536,127.451,190.631,128.311z"/>
			<g style="opacity:0.4;">
				
					<line style="fill:none;stroke:#4A4A4A;stroke-width:0.4237;stroke-miterlimit:10;" x1="151.734" y1="155.169" x2="192.915" y2="136.59"/>
				
					<line style="fill:none;stroke:#4A4A4A;stroke-width:0.4237;stroke-miterlimit:10;" x1="157.544" y1="168.046" x2="198.724" y2="149.466"/>
				
					<line style="fill:none;stroke:#4A4A4A;stroke-width:0.4237;stroke-miterlimit:10;" x1="163.354" y1="180.922" x2="204.534" y2="162.343"/>
				
					<line style="fill:none;stroke:#4A4A4A;stroke-width:0.4237;stroke-miterlimit:10;" x1="169.163" y1="193.799" x2="210.344" y2="175.219"/>
				
					<line style="fill:none;stroke:#4A4A4A;stroke-width:0.4237;stroke-miterlimit:10;" x1="174.973" y1="206.675" x2="216.153" y2="188.096"/>
				
					<line style="fill:none;stroke:#4A4A4A;stroke-width:0.4237;stroke-miterlimit:10;" x1="180.783" y1="219.552" x2="221.963" y2="200.972"/>
			</g>
			
				<line style="opacity:0.4;fill:none;stroke:#4A4A4A;stroke-width:0.4237;stroke-miterlimit:10;" x1="153.947" y1="151.152" x2="185.352" y2="220.76"/>
		</g>
		<g>
			<path style="fill:#FFFFFF;" d="M479.543,261.918l-33.287-41.145c-1.315-1.624-3.695-1.875-5.318-0.562l-3.152,2.55l2.23,2.759
				c0.674-0.141,1.398,0.088,1.861,0.66c0.658,0.812,0.531,2.002-0.281,2.66c-0.813,0.658-2.004,0.531-2.66-0.281
				c-0.461-0.571-0.537-1.329-0.256-1.958l-2.23-2.758l-7.756,6.274l2.23,2.759c0.674-0.142,1.398,0.089,1.861,0.66
				c0.656,0.812,0.531,2.004-0.281,2.661c-0.813,0.657-2.004,0.532-2.662-0.281c-0.461-0.57-0.533-1.328-0.256-1.958l-2.23-2.759
				l-7.756,6.274l2.23,2.759c0.674-0.142,1.4,0.089,1.861,0.66c0.658,0.811,0.531,2.004-0.279,2.661
				c-0.813,0.657-2.004,0.53-2.662-0.28c-0.463-0.573-0.535-1.33-0.256-1.959l-2.232-2.757l-7.756,6.274l2.232,2.758
				c0.672-0.143,1.398,0.089,1.861,0.66c0.658,0.813,0.531,2.003-0.281,2.661c-0.813,0.657-2.004,0.532-2.66-0.281
				c-0.463-0.571-0.535-1.329-0.258-1.959l-2.232-2.757l-7.754,6.273l2.23,2.758c0.674-0.143,1.4,0.09,1.863,0.66
				c0.656,0.812,0.529,2.004-0.281,2.66c-0.813,0.658-2.004,0.531-2.662-0.279c-0.461-0.572-0.535-1.33-0.256-1.959l-2.23-2.758
				l-7.758,6.275l2.232,2.758c0.674-0.141,1.398,0.088,1.861,0.66c0.658,0.813,0.531,2.004-0.281,2.66
				c-0.813,0.656-2.004,0.531-2.66-0.279c-0.463-0.572-0.537-1.33-0.258-1.959l-2.23-2.76l-7.756,6.275l2.232,2.758
				c0.672-0.141,1.398,0.09,1.861,0.66c0.656,0.813,0.529,2.004-0.281,2.66c-0.813,0.658-2.004,0.531-2.662-0.279
				c-0.461-0.57-0.533-1.33-0.256-1.959l-2.23-2.758l-3.156,2.551c-1.621,1.313-1.873,3.693-0.561,5.318l33.289,41.145
				c1.315,1.625,3.693,1.875,5.318,0.563l62.197-50.32C480.603,265.922,480.857,263.543,479.543,261.918z"/>
			<g style="opacity:0.4;">
				
					<line style="fill:none;stroke:#4A4A4A;stroke-width:0.4237;stroke-miterlimit:10;" x1="443.699" y1="231.104" x2="472.113" y2="266.227"/>
				
					<line style="fill:none;stroke:#4A4A4A;stroke-width:0.4237;stroke-miterlimit:10;" x1="432.717" y1="239.989" x2="461.131" y2="275.111"/>
				
					<line style="fill:none;stroke:#4A4A4A;stroke-width:0.4237;stroke-miterlimit:10;" x1="421.734" y1="248.874" x2="450.149" y2="283.996"/>
				
					<line style="fill:none;stroke:#4A4A4A;stroke-width:0.4237;stroke-miterlimit:10;" x1="410.752" y1="257.76" x2="439.167" y2="292.882"/>
				
					<line style="fill:none;stroke:#4A4A4A;stroke-width:0.4237;stroke-miterlimit:10;" x1="399.77" y1="266.645" x2="428.185" y2="301.767"/>
				
					<line style="fill:none;stroke:#4A4A4A;stroke-width:0.4237;stroke-miterlimit:10;" x1="388.787" y1="275.529" x2="417.203" y2="310.652"/>
			</g>
			
				<line style="opacity:0.4;fill:none;stroke:#4A4A4A;stroke-width:0.4237;stroke-miterlimit:10;" x1="448.146" y1="232.226" x2="388.777" y2="280.256"/>
		</g>
		<g>
			<path style="fill:#FFFFFF;" d="M169.626,249.376l-42.402,31.671c-1.674,1.25-2.017,3.619-0.767,5.293l2.427,3.248l2.844-2.123
				c-0.115-0.678,0.142-1.393,0.732-1.834c0.835-0.627,2.02-0.453,2.645,0.385c0.626,0.836,0.454,2.022-0.383,2.647
				c-0.589,0.439-1.35,0.486-1.967,0.18l-2.842,2.123l5.969,7.994l2.844-2.123c-0.116-0.68,0.142-1.395,0.731-1.836
				c0.837-0.623,2.024-0.453,2.648,0.385c0.626,0.838,0.453,2.023-0.384,2.648c-0.588,0.439-1.348,0.482-1.966,0.18l-2.844,2.123
				l5.97,7.992l2.844-2.121c-0.116-0.678,0.144-1.397,0.731-1.836c0.836-0.625,2.023-0.453,2.648,0.383
				c0.625,0.838,0.453,2.023-0.382,2.648c-0.591,0.441-1.351,0.484-1.968,0.182l-2.842,2.123l5.97,7.992l2.841-2.123
				c-0.114-0.678,0.144-1.395,0.731-1.836c0.838-0.625,2.023-0.453,2.649,0.385c0.625,0.838,0.453,2.023-0.384,2.647
				c-0.589,0.441-1.35,0.484-1.968,0.184l-2.841,2.123l5.969,7.99l2.842-2.121c-0.116-0.68,0.143-1.396,0.732-1.836
				c0.837-0.625,2.023-0.453,2.648,0.385c0.626,0.836,0.453,2.022-0.383,2.648c-0.589,0.438-1.35,0.484-1.967,0.18l-2.842,2.121
				l5.97,7.996l2.842-2.125c-0.114-0.678,0.143-1.395,0.731-1.834c0.838-0.625,2.023-0.453,2.647,0.383
				c0.625,0.838,0.453,2.023-0.382,2.648c-0.59,0.439-1.35,0.484-1.968,0.182l-2.843,2.121l5.97,7.994l2.843-2.125
				c-0.115-0.676,0.144-1.395,0.731-1.834c0.837-0.625,2.023-0.451,2.646,0.385c0.627,0.838,0.455,2.022-0.382,2.648
				c-0.588,0.438-1.35,0.48-1.966,0.18l-2.844,2.123l2.428,3.252c1.248,1.67,3.618,2.014,5.292,0.766l42.402-31.674
				c1.673-1.25,2.015-3.619,0.767-5.293l-47.879-64.095C173.667,248.469,171.3,248.124,169.626,249.376z"/>
			<g style="opacity:0.4;">
				
					<line style="fill:none;stroke:#4A4A4A;stroke-width:0.4237;stroke-miterlimit:10;" x1="137.449" y1="284" x2="173.643" y2="256.965"/>
				
					<line style="fill:none;stroke:#4A4A4A;stroke-width:0.4237;stroke-miterlimit:10;" x1="145.903" y1="295.317" x2="182.097" y2="268.282"/>
				
					<line style="fill:none;stroke:#4A4A4A;stroke-width:0.4237;stroke-miterlimit:10;" x1="154.356" y1="306.636" x2="190.551" y2="279.6"/>
				
					<line style="fill:none;stroke:#4A4A4A;stroke-width:0.4237;stroke-miterlimit:10;" x1="162.811" y1="317.954" x2="199.005" y2="290.918"/>
				
					<line style="fill:none;stroke:#4A4A4A;stroke-width:0.4237;stroke-miterlimit:10;" x1="171.265" y1="329.272" x2="207.459" y2="302.235"/>
				
					<line style="fill:none;stroke:#4A4A4A;stroke-width:0.4237;stroke-miterlimit:10;" x1="179.718" y1="340.59" x2="215.913" y2="313.553"/>
			</g>
			
				<line style="opacity:0.4;fill:none;stroke:#4A4A4A;stroke-width:0.4237;stroke-miterlimit:10;" x1="138.742" y1="279.6" x2="184.441" y2="340.781"/>
		</g>
		<g>
			<polygon style="fill:#262626;" points="111.193,252.551 63.131,234.36 81.13,173.635 129.192,191.827 			"/>
			<polygon style="fill:#262626;" points="110.405,256.35 62.343,238.159 56.517,226.348 104.579,244.54 			"/>
			<polygon style="fill:#CF3232;" points="131.397,187.105 129.192,191.827 120.564,204.486 119.901,202.749 130.869,186.662 			"/>
			<polygon style="fill:#4A4A4A;" points="96.313,240.065 48.25,221.873 57.635,223.545 105.696,241.737 			"/>
			<polygon style="opacity:0.5;fill:#262626;" points="96.313,240.065 48.25,221.873 57.635,223.545 105.696,241.737 			"/>
			<polygon style="fill:#4A4A4A;" points="94.107,242.675 46.046,224.483 46.112,223.404 94.174,241.596 			"/>
			<polygon style="opacity:0.5;fill:#262626;" points="94.107,242.675 46.046,224.483 46.112,223.404 94.174,241.596 			"/>
			<polygon style="fill:#4A4A4A;" points="131.925,187.548 111.873,255.189 110.405,256.35 104.579,244.54 94.107,242.675 
				94.174,241.596 96.313,240.065 105.696,241.737 105.971,241.967 111.193,252.551 129.192,191.827 131.397,187.105 			"/>
			<polygon style="fill:#FFFFFF;" points="119.901,202.749 120.564,204.486 96.313,240.065 94.174,241.596 94.245,240.398 			"/>
			<polygon style="opacity:0.3;fill:#4A4A4A;" points="119.901,202.749 120.564,204.486 96.313,240.065 94.174,241.596 
				94.245,240.398 			"/>
			<polygon style="fill:#FFFFFF;" points="94.174,241.596 46.112,223.404 46.184,222.206 94.245,240.398 			"/>
			<polygon style="opacity:0.5;fill:#4A4A4A;" points="94.174,241.596 46.112,223.404 46.184,222.206 94.245,240.398 			"/>
			<polygon style="fill:#FA4343;" points="119.901,202.749 71.839,184.557 82.807,168.469 130.869,186.662 			"/>
			<polygon style="fill:#FFFFFF;" points="94.245,240.398 46.184,222.206 71.839,184.557 119.901,202.749 			"/>
			<g>
				<path style="fill:#FFFFFF;" d="M99.021,184.324c-0.048-0.018-0.097-0.034-0.146-0.047c-0.368-0.101-0.822-0.215-1.352-0.331
					c-0.527-0.119-1.074-0.234-1.639-0.348c-0.566-0.111-1.125-0.215-1.672-0.311c-0.549-0.093-1.035-0.169-1.444-0.221
					c-0.251-0.026-0.502-0.014-0.746,0.036c-0.358,0.076-0.514,0.254-0.59,0.41c-0.056,0.155-0.046,0.381,0.313,0.556
					c0.07,0.035,0.142,0.065,0.217,0.094c0.182,0.069,0.38,0.121,0.595,0.156c0.285,0.043,0.608,0.104,0.972,0.18
					c0.313,0.064,0.639,0.134,0.971,0.206l-0.416,0.609c-0.202,0.296-0.404,0.599-0.601,0.912c-0.2,0.312-0.389,0.62-0.567,0.924
					c-0.189,0.316-0.334,0.583-0.45,0.814c-0.079,0.158-0.134,0.314-0.16,0.461c-0.023,0.133,0.02,0.322,0.367,0.453
					c0.127,0.048,0.293,0.038,0.5-0.025c0.216-0.064,0.372-0.182,0.464-0.342c0.134-0.214,0.291-0.457,0.472-0.734
					c0.182-0.28,0.373-0.572,0.569-0.885c0.196-0.306,0.395-0.61,0.599-0.909c0.204-0.298,0.397-0.57,0.576-0.813l0.021-0.038
					l0.05-0.135c0.359,0.083,0.712,0.155,1.065,0.223c0.408,0.078,0.786,0.152,1.143,0.226c0.215,0.035,0.438,0.016,0.665-0.059
					c0.238-0.079,0.415-0.203,0.526-0.365c0.234-0.344,0.082-0.502-0.029-0.567C99.205,184.403,99.113,184.359,99.021,184.324"/>
				<path style="fill:#FFFFFF;" d="M98.877,177.771c-0.112-0.042-0.252-0.055-0.417-0.036c-0.298,0.037-0.4,0.071-0.456,0.096
					c-0.342,0.15-0.75,0.349-1.214,0.587c-0.464,0.238-0.936,0.493-1.404,0.761c-0.463,0.266-0.899,0.53-1.296,0.786
					c-0.405,0.261-0.702,0.482-0.898,0.665c-0.069,0.058-0.151,0.142-0.234,0.245c-0.088,0.105-0.163,0.214-0.222,0.326
					c-0.065,0.114-0.107,0.224-0.132,0.33c-0.042,0.172,0.032,0.273,0.101,0.326c0.027,0.022,0.062,0.039,0.095,0.051
					c0.083,0.032,0.184,0.039,0.296,0.016c0.129-0.024,0.265-0.068,0.398-0.129c0.123-0.057,0.249-0.125,0.375-0.199
					c0.119-0.07,0.214-0.13,0.297-0.183c0.207-0.144,0.462-0.308,0.758-0.484c0.27-0.162,0.571-0.332,0.903-0.505
					c0.476,0.218,0.943,0.445,1.388,0.679c0.477,0.249,0.917,0.489,1.321,0.715c0.05,0.031,0.108,0.06,0.175,0.085
					c0.093,0.035,0.202,0.064,0.327,0.089c0.25,0.045,0.442,0.022,0.587-0.073c0.103-0.065,0.226-0.183,0.239-0.381
					c0.005-0.136-0.044-0.281-0.167-0.451c-0.155-0.173-0.348-0.346-0.573-0.508c-0.222-0.161-0.459-0.312-0.704-0.451
					c-0.239-0.136-0.479-0.258-0.712-0.365c-0.124-0.059-0.24-0.11-0.344-0.154c0.191-0.096,0.377-0.19,0.558-0.283
					c0.266-0.137,0.511-0.263,0.746-0.381c0.215-0.118,0.368-0.286,0.459-0.501c0.091-0.226,0.058-0.423-0.099-0.582
					C98.986,177.824,98.935,177.794,98.877,177.771"/>
				<path style="fill:#FFFFFF;" d="M106.356,186.922c-0.298-0.113-0.604-0.224-0.916-0.333c-0.771-0.266-1.55-0.503-2.325-0.708
					c-0.222-0.057-0.447-0.089-0.671-0.093c-0.352-0.007-0.537,0.153-0.639,0.302c-0.078,0.151-0.124,0.379,0.094,0.607
					c0.137,0.144,0.326,0.261,0.559,0.35l0.09,0.034c0.695,0.236,1.424,0.485,2.186,0.739c0.536,0.182,1.062,0.37,1.579,0.566
					c0.212,0.08,0.424,0.162,0.634,0.245c0.183,0.069,0.376,0.1,0.574,0.087c0.224-0.015,0.422-0.109,0.579-0.283
					c0.096-0.117,0.141-0.238,0.129-0.361c-0.013-0.105-0.059-0.203-0.133-0.292c-0.065-0.082-0.143-0.154-0.231-0.214
					c-0.089-0.061-0.171-0.107-0.241-0.133C107.219,187.259,106.795,187.088,106.356,186.922"/>
				<path style="fill:#FFFFFF;" d="M102.748,190.939c0.1-0.116,0.233-0.25,0.396-0.395c0.21-0.185,0.499-0.363,0.866-0.531
					c0.101,0.073,0.17,0.156,0.202,0.245c0.039,0.103,0.035,0.201,0.004,0.277c-0.058,0.085-0.149,0.158-0.276,0.222
					c-0.14,0.069-0.294,0.123-0.458,0.16c-0.159,0.036-0.32,0.051-0.481,0.048C102.907,190.964,102.824,190.956,102.748,190.939
					 M104.939,188.675c-0.164-0.062-0.348-0.073-0.543-0.031c-0.706,0.136-1.422,0.436-2.132,0.892
					c-0.209,0.135-0.411,0.308-0.599,0.509c-0.19,0.205-0.337,0.421-0.438,0.643c-0.105,0.229-0.143,0.456-0.117,0.677
					c0.026,0.232,0.169,0.428,0.424,0.578c0.109,0.068,0.229,0.125,0.353,0.172c0.277,0.105,0.597,0.165,0.953,0.173
					c0.513,0.018,1.015-0.08,1.486-0.285c0.215-0.087,0.408-0.21,0.581-0.359c0.167-0.147,0.306-0.313,0.411-0.492
					c0.108-0.178,0.179-0.362,0.217-0.547c0.039-0.192,0.02-0.368-0.047-0.528c-0.054-0.105-0.135-0.208-0.248-0.32
					c-0.059-0.061-0.124-0.112-0.199-0.163c0.055-0.037,0.103-0.076,0.138-0.116c0.08-0.093,0.129-0.189,0.144-0.279
					c0.012-0.091,0.001-0.172-0.04-0.242c-0.034-0.055-0.059-0.091-0.088-0.129C105.117,188.761,105.031,188.71,104.939,188.675"/>
				<path style="fill:#FFFFFF;" d="M106.128,180.634c-0.086-0.033-0.188-0.034-0.298-0.002c-0.142,0.042-0.294,0.123-0.456,0.238
					c-0.417,0.329-0.839,0.714-1.248,1.142c-0.417,0.433-0.762,0.896-1.033,1.373c-0.368,0.669-0.234,1.211,0.376,1.565
					c0.173,0.115,0.394,0.222,0.645,0.317c0.1,0.038,0.205,0.074,0.316,0.108c0.388,0.12,0.796,0.217,1.214,0.287
					c0.419,0.07,0.85,0.114,1.275,0.137c0.43,0.021,0.826,0.006,1.168-0.045c0.287-0.033,0.527-0.115,0.714-0.248
					c0.202-0.142,0.309-0.324,0.318-0.546c0-0.192-0.117-0.278-0.217-0.316c-0.04-0.015-0.091-0.026-0.143-0.031
					c-0.168-0.018-0.336-0.024-0.486-0.019c-0.362-0.011-0.725-0.033-1.091-0.056c-0.364-0.027-0.72-0.07-1.059-0.133
					c-0.341-0.06-0.662-0.143-0.962-0.245c-0.056-0.019-0.11-0.038-0.164-0.058c-0.2-0.076-0.387-0.164-0.557-0.264
					c0.197-0.363,0.44-0.708,0.733-1.026c0.321-0.354,0.655-0.684,1.007-0.991c0.139-0.155,0.219-0.339,0.244-0.548
					c0.024-0.213-0.028-0.39-0.14-0.521C106.243,180.697,106.189,180.657,106.128,180.634"/>
			</g>
			<g>
				<path style="fill:#4A4A4A;" d="M76.197,192.46l-4.714-1.784c-0.328-0.124-0.758,0.012-0.961,0.31
					c-0.209,0.306-0.102,0.645,0.226,0.77l4.713,1.784c0.328,0.125,0.751-0.015,0.959-0.32
					C76.624,192.92,76.525,192.584,76.197,192.46"/>
				<path style="fill:#4A4A4A;" d="M85.52,195.988l-4.713-1.784c-0.328-0.124-0.758,0.012-0.962,0.311
					c-0.208,0.305-0.102,0.645,0.226,0.769l4.713,1.784c0.328,0.124,0.752-0.015,0.96-0.32
					C85.947,196.449,85.848,196.113,85.52,195.988"/>
				<path style="fill:#4A4A4A;" d="M94.842,199.517l-4.713-1.784c-0.328-0.124-0.758,0.012-0.962,0.311
					c-0.208,0.305-0.102,0.645,0.226,0.769l4.713,1.784c0.328,0.124,0.751-0.015,0.959-0.32
					C95.269,199.977,95.17,199.641,94.842,199.517"/>
				<path style="fill:#4A4A4A;" d="M104.164,203.046l-4.713-1.784c-0.328-0.124-0.758,0.012-0.962,0.311
					c-0.208,0.305-0.102,0.645,0.226,0.769l4.714,1.784c0.328,0.124,0.751-0.015,0.959-0.32
					C104.591,203.506,104.492,203.17,104.164,203.046"/>
				<path style="fill:#FA4343;" d="M113.486,206.574l-4.713-1.784c-0.328-0.124-0.758,0.012-0.961,0.31
					c-0.209,0.306-0.102,0.645,0.226,0.769l4.713,1.784c0.328,0.124,0.751-0.015,0.959-0.32
					C113.914,207.035,113.814,206.699,113.486,206.574"/>
				<path style="fill:#4A4A4A;" d="M70.755,196.096c-0.94-0.356-2.172,0.049-2.751,0.897c-0.583,0.855-0.294,1.836,0.646,2.192
					c0.932,0.352,2.165-0.052,2.748-0.907C71.976,197.429,71.687,196.449,70.755,196.096"/>
				<path style="fill:#4A4A4A;" d="M80.077,199.624c-0.94-0.356-2.172,0.049-2.75,0.898c-0.583,0.855-0.294,1.836,0.646,2.191
					c0.932,0.353,2.165-0.052,2.748-0.907C81.298,200.958,81.01,199.977,80.077,199.624"/>
				<path style="fill:#4A4A4A;" d="M89.399,203.153c-0.939-0.356-2.172,0.048-2.75,0.897c-0.583,0.856-0.294,1.836,0.646,2.192
					c0.933,0.353,2.165-0.052,2.748-0.907C90.621,204.486,90.332,203.506,89.399,203.153"/>
				<path style="fill:#4A4A4A;" d="M98.722,206.682c-0.94-0.355-2.172,0.049-2.751,0.898c-0.583,0.855-0.294,1.836,0.646,2.192
					c0.932,0.353,2.164-0.052,2.747-0.907C99.943,208.015,99.654,207.035,98.722,206.682"/>
				<path style="fill:#FA4343;" d="M108.044,210.21c-0.94-0.356-2.172,0.049-2.751,0.897c-0.583,0.855-0.294,1.836,0.646,2.191
					c0.932,0.353,2.164-0.051,2.747-0.907C109.266,211.544,108.977,210.564,108.044,210.21"/>
				<path style="fill:#4A4A4A;" d="M66.193,202.79c-0.94-0.356-2.172,0.049-2.755,0.904c-0.583,0.855-0.294,1.835,0.646,2.191
					c0.932,0.353,2.164-0.052,2.747-0.907C67.415,204.123,67.126,203.143,66.193,202.79"/>
				<path style="fill:#4A4A4A;" d="M75.516,206.318c-0.939-0.356-2.172,0.048-2.755,0.904c-0.583,0.855-0.294,1.835,0.646,2.191
					c0.932,0.353,2.165-0.052,2.747-0.907C76.737,207.651,76.448,206.671,75.516,206.318"/>
				<path style="fill:#4A4A4A;" d="M84.838,209.847c-0.94-0.356-2.172,0.048-2.756,0.904c-0.582,0.855-0.294,1.835,0.646,2.191
					c0.933,0.352,2.165-0.052,2.748-0.907C86.059,211.18,85.771,210.2,84.838,209.847"/>
				<path style="fill:#4A4A4A;" d="M94.161,213.376c-0.94-0.355-2.172,0.049-2.755,0.904c-0.583,0.855-0.294,1.836,0.646,2.191
					c0.933,0.353,2.165-0.052,2.748-0.907C95.382,214.709,95.093,213.729,94.161,213.376"/>
				<path style="fill:#FA4343;" d="M103.483,216.904c-0.94-0.356-2.172,0.049-2.755,0.904c-0.583,0.855-0.294,1.835,0.646,2.191
					c0.932,0.353,2.165-0.052,2.748-0.907C104.704,218.237,104.415,217.257,103.483,216.904"/>
				<path style="fill:#4A4A4A;" d="M61.627,209.49c-0.94-0.355-2.172,0.049-2.75,0.898c-0.583,0.855-0.294,1.836,0.646,2.192
					c0.932,0.353,2.165-0.052,2.748-0.907C62.849,210.823,62.56,209.843,61.627,209.49"/>
				<path style="fill:#4A4A4A;" d="M70.95,213.019c-0.94-0.356-2.172,0.049-2.75,0.897c-0.583,0.855-0.294,1.836,0.646,2.192
					c0.933,0.353,2.165-0.052,2.748-0.907C72.171,214.352,71.882,213.372,70.95,213.019"/>
				<path style="fill:#4A4A4A;" d="M80.272,216.547c-0.94-0.356-2.173,0.049-2.751,0.897c-0.583,0.855-0.294,1.836,0.646,2.191
					c0.933,0.353,2.165-0.052,2.748-0.907C81.493,217.88,81.205,216.9,80.272,216.547"/>
				<path style="fill:#4A4A4A;" d="M89.595,220.076c-0.94-0.356-2.172,0.048-2.751,0.897c-0.583,0.856-0.294,1.836,0.646,2.192
					c0.932,0.353,2.165-0.052,2.748-0.907C90.815,221.409,90.527,220.429,89.595,220.076"/>
				<path style="fill:#FA4343;" d="M98.917,223.605c-0.94-0.356-2.172,0.049-2.751,0.897c-0.583,0.855-0.294,1.836,0.646,2.192
					c0.932,0.353,2.165-0.052,2.748-0.907C100.138,224.938,99.849,223.958,98.917,223.605"/>
				<path style="fill:#4A4A4A;" d="M57.066,216.184c-0.94-0.355-2.172,0.049-2.755,0.904c-0.583,0.855-0.294,1.836,0.646,2.191
					c0.932,0.353,2.165-0.051,2.748-0.907C58.287,217.517,57.999,216.537,57.066,216.184"/>
				<path style="fill:#4A4A4A;" d="M66.389,219.712c-0.94-0.356-2.173,0.049-2.756,0.904c-0.583,0.855-0.294,1.835,0.646,2.191
					c0.932,0.353,2.165-0.052,2.748-0.907C67.609,221.045,67.321,220.065,66.389,219.712"/>
				<path style="fill:#4A4A4A;" d="M75.711,223.241c-0.94-0.356-2.172,0.048-2.756,0.904c-0.583,0.855-0.294,1.836,0.646,2.191
					c0.933,0.353,2.165-0.052,2.748-0.907C76.932,224.574,76.643,223.594,75.711,223.241"/>
				<path style="fill:#4A4A4A;" d="M85.033,226.77c-0.94-0.356-2.172,0.048-2.755,0.904c-0.583,0.855-0.294,1.835,0.646,2.191
					c0.932,0.353,2.165-0.052,2.748-0.907S85.965,227.123,85.033,226.77"/>
				<path style="fill:#FA4343;" d="M94.355,230.298c-0.94-0.355-2.172,0.049-2.755,0.904c-0.583,0.855-0.294,1.836,0.646,2.191
					c0.932,0.353,2.164-0.052,2.748-0.907C95.577,231.632,95.288,230.651,94.355,230.298"/>
			</g>
		</g>
		<g>
			<polygon style="fill:#FA4343;" points="410.357,194.208 373.793,185.578 424.56,179.023 			"/>
			<polygon style="fill:#CF3232;" points="410.357,194.208 420.824,213.427 373.793,185.578 			"/>
			<polygon style="fill:#FFFFFF;" points="408.185,198.394 420.824,213.427 373.793,185.578 			"/>
			<polygon style="fill:#FA4343;" points="408.185,198.394 401.867,217.735 373.793,185.578 			"/>
		</g>
		<g>
			<polygon style="fill:#FFFFFF;" points="448.154,131.593 420.875,115.956 425.055,113.139 452.334,128.776 			"/>
			<path style="fill:#262626;" d="M448.154,131.593l-27.279-15.637l15.076,34.799c0,0,10.992,18.977,12.5,22.046
				c1.506,3.068,2.68,4.391,5.705,6.557c3.029,2.164,9.057-2.068,10.367-6.324c1.313-4.251-1.625-7.42-1.629-7.422L448.154,131.593z
				"/>
			<g>
				<polygon style="fill:#FFFFFF;" points="435.607,141.247 410.674,126.9 422.84,118.704 447.775,133.051 				"/>
				<polygon style="opacity:0.2;fill:#4A4A4A;" points="413.404,125.062 410.674,126.9 435.607,141.247 438.379,139.38 				"/>
				<path style="fill:#FFFFFF;" d="M435.607,141.247l12.168-8.196l14.125,32.598c1.463,3.379-0.078,7.961-3.43,10.218
					c-3.356,2.26-7.275,1.357-8.736-2.021L435.607,141.247z"/>
				<path style="opacity:0.2;fill:#4A4A4A;" d="M435.607,141.247l12.168-8.196l14.125,32.598c1.463,3.379-0.078,7.961-3.43,10.218
					c-3.356,2.26-7.275,1.357-8.736-2.021L435.607,141.247z"/>
				<polygon style="fill:#FFFFFF;" points="447.775,133.051 435.607,141.247 435.721,141.507 447.889,133.311 				"/>
				<path style="opacity:0.2;fill:#4A4A4A;" d="M453.385,174.036l-14.125-32.602l-0.887-2.048l-2.766,1.862l14.127,32.599
					c1.145,2.642,3.793,3.764,6.498,3.044C455.01,176.388,453.986,175.424,453.385,174.036z"/>
			</g>
			<polygon style="fill:#FFFFFF;" points="431.807,142.605 404.525,126.968 408.707,124.151 435.986,139.788 			"/>
			<polygon style="opacity:0.8;fill:#4A4A4A;" points="448.154,131.593 420.875,115.956 425.055,113.139 452.334,128.776 			"/>
			<polygon style="opacity:0.8;fill:#4A4A4A;" points="431.807,142.605 404.525,126.968 408.707,124.151 435.986,139.788 			"/>
			<path style="fill:#4A4A4A;" d="M431.807,142.605l-27.281-15.637l15.076,34.8c0.848,1.952,2.18,3.417,3.795,4.34
				c9.094,5.212,18.188,10.423,27.281,15.637c-1.615-0.924-2.947-2.388-3.795-4.34L431.807,142.605z"/>
			<path style="fill:#F5F7FF;" d="M411.17,137.22l7.646,17.651c0.496,1.144,1.49,2.414,2.223,2.831l5.648,3.239
				c0.73,0.416,0.918-0.17,0.424-1.318l-7.65-17.647c-0.496-1.145-1.488-2.413-2.219-2.829l-5.648-3.239
				C410.861,135.49,410.672,136.076,411.17,137.22"/>
			<path style="fill:#262626;" d="M431.807,142.605l4.18-2.817l0.951,2.202l14.129,32.599c1.459,3.378,5.381,4.282,8.734,2.021
				c3.354-2.26,4.897-6.842,3.432-10.218l-15.078-34.799l4.18-2.816l15.08,34.8c2.469,5.694-0.133,13.429-5.791,17.24
				c-5.662,3.813-12.271,2.287-14.74-3.411L431.807,142.605z"/>
			<polygon style="fill:#FA4343;" points="464.451,159.31 463.484,163.706 467.227,166.206 456.553,170.504 453.777,163.605 			"/>
		</g>
		<path style="fill:#4A4A4A;" d="M110.144,136.427c0.184-0.414,0.184-0.891,0-1.309c-4.598-1.133-7.255-3.791-8.387-8.387
			c-0.417-0.184-0.894-0.184-1.31,0c-1.132,4.596-3.789,7.254-8.387,8.387c-0.183,0.418-0.183,0.895,0,1.309
			c4.598,1.135,7.255,3.791,8.387,8.389c0.418,0.182,0.893,0.182,1.31,0C102.889,140.218,105.546,137.561,110.144,136.427z"/>
		<path style="fill:#FA4343;" d="M227.531,241.052c0.184-0.414,0.184-0.891,0-1.309c-4.598-1.133-7.255-3.791-8.387-8.387
			c-0.417-0.184-0.895-0.184-1.311,0c-1.132,4.596-3.789,7.254-8.387,8.387c-0.183,0.418-0.183,0.895,0,1.309
			c4.598,1.135,7.255,3.791,8.387,8.389c0.418,0.182,0.894,0.182,1.311,0C220.276,244.843,222.933,242.186,227.531,241.052z"/>
		<path style="fill:#FFFFFF;" d="M379.338,151.806c0.184-0.414,0.184-0.891,0-1.309c-4.598-1.133-7.254-3.791-8.387-8.387
			c-0.416-0.184-0.895-0.184-1.311,0c-1.131,4.596-3.789,7.254-8.387,8.387c-0.182,0.418-0.182,0.895,0,1.309
			c4.598,1.135,7.256,3.791,8.387,8.389c0.418,0.182,0.895,0.182,1.311,0C372.084,155.597,374.74,152.941,379.338,151.806z"/>
		<path style="fill:#FFFFFF;" d="M142.423,344.322c-0.098-0.6-0.533-1.088-1.121-1.256l-5.526-1.563l5.095-11.148
			c0.297-0.641,0.123-1.4-0.417-1.855c-0.538-0.455-1.316-0.49-1.897-0.09l-18.582,12.789c-0.501,0.346-0.758,0.947-0.66,1.549
			c0.1,0.6,0.537,1.09,1.121,1.256l5.527,1.564l-5.098,11.148c-0.292,0.639-0.123,1.398,0.42,1.854
			c0.176,0.145,0.373,0.248,0.58,0.309c0.438,0.123,0.924,0.053,1.318-0.219l18.582-12.789
			C142.269,345.523,142.525,344.922,142.423,344.322z"/>
		<path style="fill:#FFD04F;" d="M479.9,313.629c-0.098-0.6-0.533-1.088-1.121-1.256l-5.525-1.563l5.094-11.148
			c0.297-0.641,0.123-1.4-0.416-1.855c-0.539-0.455-1.316-0.49-1.898-0.09l-18.582,12.789c-0.5,0.346-0.758,0.947-0.66,1.549
			c0.1,0.6,0.537,1.09,1.121,1.256l5.527,1.565l-5.098,11.148c-0.291,0.639-0.123,1.398,0.42,1.854
			c0.176,0.145,0.373,0.248,0.58,0.308c0.438,0.123,0.924,0.053,1.318-0.219l18.582-12.789
			C479.746,314.83,480.002,314.228,479.9,313.629z"/>
	</g>
	<rect x="0" y="405.998" style="fill:#EDB48C;" width="500.002" height="94.002"/>
	<g>
		<g>
			<path style="fill:#CF3232;" d="M352.99,216.249c-6.25-3-11.629-8.583-25.314-8.917c-13.686-0.333-60.936,0-60.936,0l1,56.69
				h88.25L352.99,216.249z"/>
			<path style="fill:#4A4A4A;" d="M325.353,227.499c0,0,37.303,17.833,40.303,20.333l8.334,158.166h-97.555l-11.305-155.998
				l10.658-13.596L325.353,227.499z"/>
			<path style="fill:#FA4343;" d="M336.865,227.874c0,0-8.75,43.374-10.875,77.124s1.75,101,1.75,101h87.5
				c0,0-10.75-125-14.25-138.75c-3.5-13.75-6.25-14.459-10.25-18.104c-4-3.645-10.25-5.073-10.25-5.073s0-9.066-3.25-12.257
				c-3.25-3.19-21.75-14.065-24.25-15.565S339.498,213.772,336.865,227.874z"/>
			<path style="fill:#CF3232;" d="M408.955,336.828l-29.389-3.15c-0.744,14.047,0.238,52.793,1.168,72.32h34.506
				C415.24,405.998,412.277,371.547,408.955,336.828z"/>
			<path style="fill:#FA4343;" d="M278.131,228.735c0,0-2.807,36.597-1.141,66.597c1.666,30,10.5,110.666,10.5,110.666h-23.168
				L266.156,378c0,0-7.832-21.834-11-31.334c-13.167,12.666-23.001,21.834-24.333,23.834c-1.333,2-3.333,6.666-6.833,9.666
				s-5.5,3.334-5.5,3.334s-2.666,5.832-6.833,7.832c-4.167,2-7.167,2.168-7.167,2.168h-30.667c0,0-5.999-19.834-5.666-23.168
				c0.333-3.332,3-11.666,7.5-15.832c5.666-7.668,10.5-11.834,14-13.668c9.166-14,24.333-38.332,24.333-38.332
				c8.667-18.668,21.834-39.834,23.667-43.5c1.833-3.668,6.166-10.167,8.166-12.167s4.178-3.5,4.178-3.5s6.572-13.667,10.531-15.667
				C264.49,225.666,278.131,228.735,278.131,228.735z"/>
			<path style="fill:#CF3232;" d="M241.677,252.291c-0.961,1.436-1.913,2.949-2.718,4.328c0.805,9.197,2.075,23.385,3.147,33.879
				c1.718,16.834,4.884,41,4.551,41.5c-0.333,0.5-14.334-24.334-14.667-22.166c-0.299,1.943,10.407,27.506,18.027,41.766
				c1.647-1.576,3.36-3.219,5.139-4.932C248.589,323.053,240.172,288.291,241.677,252.291z"/>
			<g>
				<path style="fill:#CF3232;" d="M218.04,384.381c0.292-0.539,0.449-0.881,0.449-0.881
					C218.257,383.574,218.121,383.926,218.04,384.381z"/>
				<path style="fill:#CF3232;" d="M212.74,346.748c-2.25-2.125,0.875,2.125,3.75,10.375s2.875,17.25,2,26.377
					c0,0,2-0.334,5.5-3.334s5.5-7.666,6.833-9.666c0.037-0.057,0.104-0.137,0.155-0.205
					C226.223,357.23,214.824,348.717,212.74,346.748z"/>
			</g>
			<path style="fill:#CF3232;" d="M245.394,247.29c4.807,4.085,8.745,15.545,10.971,22.332c2.625,8,13,31,16,36.375
				s3.625,7.375,3.375,4.717c-0.25-2.66-7.625-17.842-14-32.717c-6.375-14.875-11.74-34.665-11.74-34.665s-2.178,1.5-4.178,3.5
				C245.69,246.965,245.546,247.121,245.394,247.29z"/>
			<path style="fill:#CF3232;" d="M260.531,227.666c-2.533,1.28-6.135,7.333-8.4,11.53c4.246,8.079,14.617,18.912,24.428,24.826
				c0.355-19.41,1.572-35.287,1.572-35.287S264.49,225.666,260.531,227.666z"/>
			<path style="fill:#CF3232;" d="M332.072,296.623c-4.166,6.75-3.717,8.762-4.332,14.092c-0.711,6.154,4.625-9.842,6.875-13.467
				s14.625-19.5,30.25-36.625c10.504-11.512,19.871-12.731,24.887-12.295c-3.961-3.041-9.262-4.257-9.262-4.257
				C365.49,256.893,336.24,289.873,332.072,296.623z"/>
		</g>
		<path style="fill:#FFD9BA;" d="M279.24,238.284c0,0,1.443,22.839,5.033,32.464c3.592,9.625,13.967,14.375,26.467,6.75
			s21.406-25.25,21.453-36.999c0.047-11.75-0.578-22.584-0.578-22.584H279.24V238.284z"/>
		<path style="fill:#F7A486;" d="M299.398,260.123c5.16-2.027,25.699-12.256,32.674-30.349c-0.17-6.873-0.457-11.859-0.457-11.859
			H279.24v20.37c0,0,1.443,22.839,5.033,32.464c1.701,4.559,4.926,8.02,9.174,9.596c7.727,0.717,2.877-11.617,2.406-13.346
			C295.344,265.123,293.99,262.248,299.398,260.123z"/>
		<g>
			<path style="fill:#FFD9BA;" d="M245.884,202.249c2.386,15.209,5.1,27.703,13.739,38.121c8.639,10.41,19.197,17.263,28.184,17.195
				c8.98-0.057,37.973-6.65,44.49-36.187c4.353-6.349,21.209-24.06,15.902-52.786c-5.307-28.725-30.318-52.027-69.027-42.927
				C240.468,134.754,237.636,175.533,245.884,202.249z"/>
			<path style="fill:#4A4A4A;" d="M242.106,176.124l70.898,6.617c0,0,8.236,13.633,22.861,14.758l11.406,3.414
				c0,0,4.574-9.914,4.334-21.039c1.885,2.125,4.385,1.958,4.385,1.958l-4.385-15.887l-3.365-22.75c0,0-6.125-19.072-27.25-24.197
				s-70.251,20-70.251,20S240.827,160.443,242.106,176.124z"/>
			<path style="opacity:0.6;fill:#262626;" d="M351.605,165.945l-0.682-4.601l-39.145,21.282l1.225,0.114
				c0,0,3.047,5.033,8.715,9.236c8.033-3.776,22.285-11.54,30.889-22.4L351.605,165.945z"/>
			<path style="fill:#4A4A4A;" d="M253.359,208.051c0.557,2.727,2.588,4.628,4.523,4.232c1.94-0.389,3.059-2.927,2.508-5.664
				c-0.557-2.739-2.576-4.631-4.525-4.241C253.928,202.777,252.807,205.309,253.359,208.051z"/>
			<path style="fill:#4A4A4A;" d="M299.52,206.589c0.512,2.739,2.504,4.674,4.449,4.314c1.947-0.365,3.115-2.884,2.602-5.63
				c-0.51-2.743-2.502-4.675-4.451-4.319C300.17,201.316,299.006,203.838,299.52,206.589z"/>
			<path style="fill:#262626;" d="M263.088,206.349c-2.857-2.865-5.592-5.254-8.166-4.662c-2.58,0.591-4.111,4.135-4.075,5.306
				c-0.727-0.165-2.65-2.315-2.65-2.315l1.368-0.575c0.742-1.902,1.767-4.464,5.667-4.854
				C258.918,198.873,261.9,202.155,263.088,206.349z"/>
			<path style="fill:#262626;" d="M293.918,205.484c2.865-4.483,11.496-9.805,15.113-1.151c2.443-0.498,3.973-2.863,3.973-2.863
				s-1.318-0.455-2.336-1.102c-2.221-2.134-5.223-4.235-9.479-3.374C296.932,197.859,294.5,201.201,293.918,205.484z"/>
			<path style="fill:#262626;" d="M293.58,192.815l-2.377-2.232c0,0,4.436-2.149,9.563-3.052c5.123-0.906,14.121-0.33,14.121-0.33
				S301.615,190.072,293.58,192.815z"/>
			<path style="fill:#262626;" d="M262.135,194.574l0.762-2.652c0,0-3.863-1.088-7.719-0.823c-3.852,0.264-9.78,2.786-9.78,2.786
				S255.582,193.711,262.135,194.574z"/>
			<path style="fill:#B86E5E;" d="M272.184,213.218c0,0-1.309,5.289-1.035,6.65c0.279,1.346,1.518,2.241,2.979,2.918
				c-2.104,0.076-4.287-1.338-4.639-3.07C269.137,217.982,272.486,211.928,272.184,213.218z"/>
			<path style="fill:#B86E5E;" d="M277.103,221.831c-0.91-0.115-0.894-1.143,0.074-1.385c0.963-0.241,2.646,0.879,2.646,0.879
				S277.783,221.913,277.103,221.831z"/>
			<g>
				<path style="fill:#78241E;" d="M271.807,233.149c-0.045-0.75,1.105-1.508,5.371-2.392c4.268-0.893,18.74-2.734,19.355-1.731
					c0.617,1.001,0.594,12.677-10.859,14.795C274.4,245.907,271.883,234.35,271.807,233.149z"/>
				<path style="fill:#FA6E72;" d="M295.853,235.396c-1.252,3.483-4.101,7.302-10.18,8.425c-5.947,1.097-9.438-1.597-11.432-4.558
					C278.678,233.56,289.213,229.479,295.853,235.396z"/>
				<path style="fill:#FFFFFF;" d="M277.178,230.757c3.527-0.732,14.002-2.12,17.893-2.017c-3.197,3.123-10.648,5.339-16.682,6.036
					c-3.397,0.385-5.381-0.228-6.506-1.142c-0.041-0.212-0.066-0.393-0.076-0.485C271.762,232.399,272.912,231.641,277.178,230.757z
					"/>
			</g>
			<path style="fill:#FFD9BA;" d="M329.566,204.686c1.217-10.292,6.725-15.423,12.457-13.059
				c5.733,2.358,11.707,27.204-11.035,29.175L329.566,204.686z"/>
			<path style="fill:#FA4343;" d="M237.23,168.57c0,0,2.857,15.963,4.366,22.059c27.884,4.721,84.009-0.059,110.009-24.684
				l-2.893-22.75C348.713,143.195,326.105,170.82,237.23,168.57z"/>
			<path style="fill:#4A4A4A;" d="M325.641,149.108h-51.514c9.875,25.875,32.23,45.125,32.928,43.625
				c0.697-1.5-1.928-16.5-1.928-16.5c8.254,9.274,26.375,15.625,26.375,14.125s-2.375-13.75-2.375-13.75s7.625,5.875,7.875,5.375
				S336.031,167.608,325.641,149.108z"/>
			<path style="fill:#4A4A4A;" d="M250.74,153.249c0,0-7.143,10.046-8.634,33.773c-3.991-0.648-6.616-11.773-6.616-11.773
				s-5.5,2.375-7.875,2.5c2.125-7.125-2.27-28.875,9.615-41.125c-3.99-1.75-7.615-6.972-7.615-6.972s10.625-3.653,27.251-11.278
				c16.625-7.625,28.75-13.375,55.625-4.875c0-4.75,0.625-9.625,0.625-9.625s6.625,5,7.875,15.125l-1.875,14.25L250.74,153.249z"/>
			<path style="fill:#4A4A4A;" d="M326.49,192.815c0,0,3.5,20.683,4.625,18.683s7.109-12.375,7.305-26.375L326.49,192.815z"/>
			<path style="fill:#4A4A4A;" d="M342.156,133.499l-4.084,11.167c10.084,7.167,18.084,4.667,18.5,4.443
				C356.988,148.885,349.99,140.832,342.156,133.499z"/>
		</g>
		<rect x="128.157" y="399.166" style="fill:#FFFFFF;" width="108.333" height="6.832"/>
		<polygon style="opacity:0.2;fill:#4A4A4A;" points="236.49,399.166 221.474,399.166 223.49,405.998 236.49,405.998 		"/>
		<g>
			<path style="fill:#F7A486;" d="M189.343,351.082c0.709,0.103,11.084,13.563,11.584,13.771c0.5,0.207,3.489,1.205,4.229,1.424
				c0.74,0.221,4.021,10.471,4.021,10.471l2.794,8.359c0,0-3.106,8.953-3.794,10.766s-3.375,3.195-9.375,3.195s-16.938,0-16.938,0
				V365.56L189.343,351.082z"/>
			<g>
				<path style="fill:#FF7892;" d="M208.759,341.045c0.656-2.31-0.686-4.715-2.995-5.371c-2.31-0.656-4.712,0.686-5.368,2.996
					l-1.07,3.766l8.363,2.375L208.759,341.045z"/>
				<polygon style="fill:#FFAD29;" points="195.036,390.143 186.525,387.725 199.251,342.414 207.761,344.832 				"/>
				<polygon style="fill:#FFD04F;" points="192.982,389.559 188.58,388.309 201.306,342.998 205.708,344.248 				"/>
				
					<rect x="199.816" y="341.241" transform="matrix(0.2732 -0.962 0.962 0.2732 -185.4694 446.6237)" style="fill:#4A4A4A;" width="6.007" height="9.61"/>
				<g>
					<path style="fill:#FFD9BA;" d="M191.474,394.6l3.562-4.457c-0.042-1.389-1.673-1.93-1.673-1.93
						c-0.388-1.143-3.428-2.164-4.402-1.25c-0.711-0.283-1.859-0.156-2.435,0.762l0.688,5.664c0.734-0.088,1.496-0.037,2.252,0.178
						C190.22,393.779,190.898,394.139,191.474,394.6z"/>
					<path style="fill:#4A4A4A;" d="M191.474,394.6c-0.576-0.461-1.254-0.82-2.01-1.033c-0.756-0.215-1.518-0.266-2.252-0.178
						l0.689,5.68L191.474,394.6z"/>
				</g>
			</g>
			<path style="fill:#FFD9BA;" d="M181.552,356.748c0,0-7.34,3.84-9.438,5.313c-2.098,1.473-2.938,6.688-2.938,6.688
				s-4.688,4.188-6,5.188s-2.313,2.625-2.5,4.375s0.063,3.188,0,4.313s-0.625,9.438-0.375,11.063s4.625,3.25,6.188,3.438
				s3.563-0.914,3.563-0.914s1.188,1.851,3.125,2.039s6.875-0.938,6.875-0.938s1.875,1,2.938,1.75s2.655,1.215,3.535-1.438
				c0.88-2.652,0.652-4.101-0.473-7.02c-1.125-2.918-5.688-19.23-5.688-19.23L181.552,356.748z"/>
			<g>
				<path style="fill:#F7A486;" d="M164.115,379.998c-0.125,0.625,0.25,10.375,0,11.5c-0.209,0.94-2.199,1.92-3.725,2.473
					c0.668,1.525,4.629,2.977,6.1,3.152c1.563,0.188,3.563-0.914,3.563-0.914S164.24,379.373,164.115,379.998z"/>
				<path style="fill:#F7A486;" d="M176.76,364.853c0,0-1.833,5.582-1.833,7.52s5.125,14.682,6,17.186
					c0.875,2.502-0.218,7.609-0.875,7.752c0,0,1.875,1,2.938,1.75s2.655,1.215,3.535-1.438c0.88-2.652,0.652-4.101-0.473-7.02
					c-1.125-2.918-5.688-19.23-5.688-19.23l0.529-6.52H176.76z"/>
				<path style="fill:#F7A486;" d="M169.865,374.498c-0.125,0.688,1.75,14.063,1.813,15.313s-1.625,6.399-1.625,6.399
					s1.188,1.851,3.125,2.039s6.875-0.938,6.875-0.938s-6.563-7.5-6.938-8.313S169.99,373.81,169.865,374.498z"/>
			</g>
			<path style="fill:#FFD9BA;" d="M189.823,367.082c0,0-1.999,5.916-1.666,7c0.333,1.084,3.706,10.186,3.645,12.885
				c-0.062,2.699-2.908,6.865-5.276,6.031c-2.368-0.832-2.868-4.783-5.035-9.058c-2.167-4.274-4.751-9.442-5.167-10.858
				c-0.416-1.416-1-3.275,0-6.805c1-3.529,3.834-10.613,4.334-11.945c0.5-1.334,8.207-3.584,8.687-3.25
				C189.823,351.416,190.073,364.748,189.823,367.082z"/>
			<path style="fill:#FFD9BA;" d="M206.907,375.748c-5.334,1-11.034,6.027-11.871,7.752c-0.837,1.725-0.962,6.748,1.121,8.082
				c2.083,1.334,4.105-1.084,7.969-3c3.864-1.916,8.031-2.736,8.364-4.201c0.333-1.465-0.519-8.633-0.519-8.633
				s0.018-4.332-0.648-5.332c-0.666-1-6.082-4.609-6.166-4.139C205.073,366.748,206.657,371.166,206.907,375.748z"/>
		</g>
		<path style="fill:#FFFFFF;" d="M437.49,395.332c-24.668-22.166-51-35.166-51-35.166l4.5,11c29.502,16.332,48,34.832,48,34.832
			L437.49,395.332z"/>
		<g>
			<path style="opacity:0.2;fill:#4A4A4A;" d="M437.49,395.332c-24.668-22.166-51-35.166-51-35.166l4.5,11
				c29.502,16.332,48,34.832,48,34.832L437.49,395.332z"/>
			<path style="fill:#3E5691;" d="M228.657,405.998H438.99c0,0-24.818-24.586-48-34.832c0,0-40.168-8.332-81.168,28h-9.666
				C300.156,399.166,256.824,388.498,228.657,405.998z"/>
			<path style="fill:#FFFFFF;" d="M228.657,405.998c0,0,39.834-16.439,73.5,0h12c9.168-15.666,30.168-35.998,76.834-34.832l-4.5-11
				c0,0-43.668-5.834-79.834,35.666c-27.166-7.834-49.666-9.459-80.833,3.334L228.657,405.998z"/>
		</g>
		<g>
			<path style="fill:#FA4343;" d="M394.283,252.291c12.373,8.707,26.207,31.375,36.873,53.207
				c10.666,21.834,12.629,25.334,15.148,28.834c2.518,3.5,17.018,20.5,20.018,25.834c3,5.332,3.668,15.5,1.834,22.916
				c-1.834,7.416-9.666,16-12.666,16.791c-3,0.793-7.168-0.459-7.168-0.459s-1.998,0.002-5.166,0.459
				c-3.166,0.459-13.5-0.459-13.5-0.459l-17.334-23.416l-5.5-12.5c0,0-16.248-6.832-19.457-9.332c-3.209-2.5-9.209-14.5-8.375-34.5
				C379.822,299.666,380.91,272.75,394.283,252.291z"/>
			<path style="fill:#CF3232;" d="M451.02,399.973c1.938-3.201,6.82-12.07,6.721-19.984c-0.125-9.865-11.125-20.365-16.5-22.865
				s-28.125,2.959-31,3.043c-2.875,0.082-1.875-3.793-0.625-7.293s23.625-17.375,21.5-17s-17,6.25-23.25,14.75
				c-2.697,3.668-4.461,7.611-5.598,10.914c2.643,1.156,4.555,1.961,4.555,1.961l1.975,4.488l11.943-1.613
				c5-7.625,16.375-9.416,22.125-6.207c5.75,3.207,13.375,11.332,13.375,20.582s-7.918,18.666-7.918,18.666
				S449.484,399.762,451.02,399.973z"/>
			<path style="fill:#FFD9BA;" d="M425.24,362.123c-3.625-1.5-9-3.875-12.5-4s-8-1-11-2.25s-4,4,0,8s7.125,3.625,7.875,4.375
				s3.125,3.75,3.125,3.75l-10.486,5.102c0,0-10.764-2.352-14.764-2.602s-8.625,1.326-9.5,2.602
				c-0.875,1.273-0.625,2.398,1.25,3.148s8.125,2.693,8.125,2.693s4,4.682,6.625,6.432s4.125,2.75,4.125,2.75s2.75,4.125,4.5,5.5
				s5.25,2.25,5.25,2.25s3.125,3.125,4.875,4s4.875,0.125,8.125,0s5-0.125,7.5-2.125s12.125-6,14.5-9s5.125-11.625,2.125-19
				s-4.375-8-8.125-9.125S425.24,362.123,425.24,362.123z"/>
			<path style="fill:#F7A486;" d="M409.615,368.248c0.75,0.75,3.125,3.75,3.125,3.75c3.084-1.332,7.668-3.916,6.75-4.166
				C418.574,367.582,409.615,368.248,409.615,368.248z"/>
			<g>
				<path style="fill:#F7A486;" d="M407.865,399.873c0,0,1.891,1.889,3.555,3.141c2.602-1.342,6.154-3.227,6.154-3.516
					C417.574,399.082,408.377,400.373,407.865,399.873z"/>
				<path style="fill:#F7A486;" d="M404.74,396.248c0.834-0.166,6.25-1.75,6.25-2.082c0-0.334-4.584-0.084-7-0.5
					c-2.416-0.416-4.75-1-5.25-1.918c-0.5-0.916,0.084-3.082,1.584-3.578c1.5-0.494,6.416-0.338,6.25-0.672
					c-0.168-0.332-5.5-0.832-8-1.5c-2.5-0.666-11.209-3.057-11.209-3.057s4,4.682,6.625,6.432s4.125,2.75,4.125,2.75
					s2.75,4.125,4.5,5.5s5.25,2.25,5.25,2.25C407.352,399.375,403.906,396.416,404.74,396.248z"/>
			</g>
		</g>
	</g>
	<g>
		<g>
			<path style="fill:#FFFFFF;" d="M55.823,390.465c-1.657,0-3,1.344-3,3v8.033c0,1.658,1.343,3,3,3h65.167v-14.033H55.823z"/>
			<g>
				<path style="fill:#CF3232;" d="M87.282,405.998H19.865c-2.481,0-4.5-2.017-4.5-4.5v-8.033c0-2.48,2.019-4.5,4.5-4.5h67.417v3
					H54.323c-0.827,0-1.5,0.674-1.5,1.5v8.033c0,0.828,0.673,1.5,1.5,1.5h32.958V405.998z"/>
			</g>
			<g>
				<path style="fill:#FA4343;" d="M123.24,405.998H55.823c-2.481,0-4.5-2.017-4.5-4.5v-8.033c0-2.48,2.019-4.5,4.5-4.5h67.417v3
					H55.823c-0.827,0-1.5,0.674-1.5,1.5v8.033c0,0.828,0.673,1.5,1.5,1.5h67.417V405.998z"/>
			</g>
			<path style="fill:#FFD04F;" d="M78.063,405.416c-0.375-5.875-2.791-7.934-2.791-7.934h-9.823c0,0,2.417,2.059,2.792,7.934
				l4.5-3.543L78.063,405.416z"/>
		</g>
		<g>
			<path style="fill:#FFFFFF;" d="M87.448,373.578c-1.657,0-3,1.344-3,3v8.033c0,1.656,1.343,3,3,3h41.917v-14.033H87.448z"/>
			<g>
				<path style="fill:#FFAD29;" d="M118.907,389.111H15.365c-2.481,0-4.5-2.02-4.5-4.5v-8.033c0-2.482,2.019-4.5,4.5-4.5h103.542v3
					H85.948c-0.827,0-1.5,0.672-1.5,1.5v8.033c0,0.826,0.673,1.5,1.5,1.5h32.959V389.111z"/>
			</g>
			<g>
				<path style="fill:#FFD04F;" d="M131.615,389.111H87.448c-2.481,0-4.5-2.02-4.5-4.5v-8.033c0-2.482,2.019-4.5,4.5-4.5h44.167v3
					H87.448c-0.827,0-1.5,0.672-1.5,1.5v8.033c0,0.826,0.673,1.5,1.5,1.5h44.167V389.111z"/>
			</g>
			<path style="fill:#FA4343;" d="M109.688,388.527c-0.375-5.875-2.791-7.934-2.791-7.934h-9.823c0,0,2.417,2.059,2.792,7.934
				l4.5-3.541L109.688,388.527z"/>
		</g>
		<g>
			<g>
				<path style="fill:#FF7892;" d="M78.517,293.563c-0.166-2.397-2.244-4.203-4.639-4.037c-2.396,0.166-4.201,2.242-4.035,4.637
					l0.27,3.908l8.673-0.602L78.517,293.563z"/>
				<polygon style="fill:#FFAD29;" points="82.253,344.404 73.427,345.016 70.037,298.074 78.862,297.463 				"/>
				<polygon style="fill:#FFD04F;" points="80.123,344.551 75.558,344.867 72.168,297.928 76.733,297.609 				"/>
				
					<rect x="69.82" y="297.278" transform="matrix(0.9976 -0.0693 0.0693 0.9976 -20.632 5.894)" style="fill:#4A4A4A;" width="9.61" height="6.008"/>
				<g>
					<path style="fill:#FFD9BA;" d="M80.414,349.805l1.839-5.4c-0.51-1.293-2.228-1.248-2.228-1.248
						c-0.752-0.943-3.958-0.873-4.565,0.316c-0.765-0.025-1.802,0.484-2.033,1.543l2.568,5.096c0.661-0.332,1.395-0.543,2.178-0.598
						C78.956,349.459,79.716,349.566,80.414,349.805z"/>
					<path style="fill:#4A4A4A;" d="M80.414,349.805c-0.698-0.238-1.458-0.346-2.241-0.291c-0.784,0.055-1.518,0.266-2.178,0.598
						l2.574,5.109L80.414,349.805z"/>
				</g>
			</g>
			<g>
				<path style="fill:#FF7892;" d="M69.819,351.131c0.733,2.287,3.181,3.545,5.468,2.814c2.287-0.734,3.545-3.18,2.812-5.467
					l-1.194-3.73l-8.279,2.654L69.819,351.131z"/>
				<polygon style="fill:#CF3232;" points="54.062,302.648 62.488,299.949 76.978,344.725 68.553,347.424 				"/>
				<polygon style="fill:#FA4343;" points="56.095,301.996 60.454,300.6 74.943,345.377 70.585,346.773 				"/>
				
					<rect x="67.191" y="340.672" transform="matrix(0.9523 -0.3051 0.3051 0.9523 -101.422 38.352)" style="fill:#4A4A4A;" width="9.61" height="6.007"/>
				<g>
					<path style="fill:#FFD9BA;" d="M54.56,296.963l-0.498,5.686c0.804,1.133,2.461,0.68,2.461,0.68
						c0.955,0.736,4.053-0.096,4.358-1.396c0.749-0.158,1.634-0.9,1.606-1.982l-3.709-4.338c-0.563,0.48-1.225,0.861-1.973,1.1
						C56.057,296.951,55.294,297.029,54.56,296.963z"/>
					<path style="fill:#4A4A4A;" d="M54.56,296.963c0.735,0.066,1.497-0.012,2.246-0.252c0.749-0.238,1.411-0.619,1.973-1.1
						l-3.719-4.348L54.56,296.963z"/>
				</g>
			</g>
			<g>
				<path style="fill:#FA4343;" d="M111.844,286.338l-14.416-4.67c-0.946-0.307-1.963,0.213-2.268,1.16l-22.728,70.147
					c-0.304,0.945,0.211,1.963,1.159,2.268l14.418,4.67c0.945,0.307,1.96-0.213,2.266-1.156l22.726-70.148
					C113.31,287.66,112.79,286.645,111.844,286.338z M102.458,290.723c-1.104-0.355-1.711-1.539-1.352-2.645
					c0.358-1.103,1.543-1.707,2.646-1.352c1.104,0.357,1.708,1.543,1.349,2.648C104.746,290.477,103.562,291.082,102.458,290.723z"
					/>
				<g>
					
						<rect x="75.27" y="351.974" transform="matrix(0.3091 -0.951 0.951 0.3091 -283.9334 315.8284)" style="fill:#FFFFFF;" width="0.274" height="2.723"/>
					<polygon style="fill:#FFFFFF;" points="76.072,351.287 74.774,350.869 74.689,351.129 75.986,351.549 					"/>
					
						<rect x="75.864" y="348.609" transform="matrix(0.3082 -0.9513 0.9513 0.3082 -279.7077 313.9241)" style="fill:#FFFFFF;" width="0.275" height="1.362"/>
					
						<rect x="76.486" y="346.69" transform="matrix(0.3098 -0.9508 0.9508 0.3098 -277.3961 312.6135)" style="fill:#FFFFFF;" width="0.275" height="1.362"/>
					
						<rect x="77.106" y="344.773" transform="matrix(0.3089 -0.9511 0.9511 0.3089 -275.1735 312.1952)" style="fill:#FFFFFF;" width="0.276" height="1.36"/>
					<polygon style="fill:#FFFFFF;" points="78.558,343.613 77.26,343.193 77.176,343.455 78.472,343.875 					"/>
					<polygon style="fill:#FFFFFF;" points="77.797,341.537 80.388,342.379 80.473,342.113 77.883,341.275 					"/>
					
						<rect x="78.972" y="339.017" transform="matrix(0.3078 -0.9514 0.9514 0.3078 -268.4456 310.4026)" style="fill:#FFFFFF;" width="0.275" height="1.362"/>
					
						<rect x="79.593" y="337.099" transform="matrix(0.3071 -0.9517 0.9517 0.3071 -266.2131 309.9294)" style="fill:#FFFFFF;" width="0.273" height="1.362"/>
					<polygon style="fill:#FFFFFF;" points="81.043,335.943 79.747,335.52 79.662,335.783 80.957,336.201 					"/>
					<polygon style="fill:#FFFFFF;" points="81.664,334.022 80.369,333.602 80.283,333.863 81.578,334.283 					"/>
					<polygon style="fill:#FFFFFF;" points="82.283,332.103 80.989,331.685 80.906,331.945 82.199,332.367 					"/>
					
						<rect x="82.728" y="328.955" transform="matrix(0.3082 -0.9513 0.9513 0.3082 -256.9123 307.3552)" style="fill:#FFFFFF;" width="0.274" height="2.724"/>
					<polygon style="fill:#FFFFFF;" points="83.527,328.268 82.232,327.85 82.147,328.109 83.444,328.529 					"/>
					<polygon style="fill:#FFFFFF;" points="84.15,326.352 82.855,325.93 82.768,326.191 84.064,326.611 					"/>
					
						<rect x="83.943" y="323.67" transform="matrix(0.3084 -0.9513 0.9513 0.3084 -250.3918 304.3206)" style="fill:#FFFFFF;" width="0.276" height="1.362"/>
					<polygon style="fill:#FFFFFF;" points="85.392,322.512 84.098,322.092 84.011,322.355 85.307,322.773 					"/>
					<polygon style="fill:#FFFFFF;" points="86.016,320.594 84.718,320.174 84.635,320.434 85.928,320.855 					"/>
					
						<rect x="86.456" y="317.445" transform="matrix(0.3084 -0.9513 0.9513 0.3084 -243.3795 302.8762)" style="fill:#FFFFFF;" width="0.275" height="2.723"/>
					
						<rect x="86.431" y="315.997" transform="matrix(0.3084 -0.9513 0.9513 0.3084 -241.3726 301.3787)" style="fill:#FFFFFF;" width="0.273" height="1.362"/>
					
						<rect x="87.051" y="314.079" transform="matrix(0.308 -0.9514 0.9514 0.308 -239.1237 300.7541)" style="fill:#FFFFFF;" width="0.274" height="1.363"/>
					<polygon style="fill:#FFFFFF;" points="88.501,312.922 87.205,312.502 87.119,312.764 88.415,313.182 					"/>
					<polygon style="fill:#FFFFFF;" points="89.122,311.002 87.825,310.582 87.742,310.846 89.038,311.264 					"/>
					<polygon style="fill:#FFFFFF;" points="89.742,309.084 88.448,308.664 88.362,308.926 89.659,309.348 					"/>
					<polygon style="fill:#FFFFFF;" points="88.985,307.008 91.575,307.848 91.661,307.586 89.069,306.746 					"/>
					<polygon style="fill:#FFFFFF;" points="90.985,305.246 89.691,304.828 89.604,305.092 90.901,305.51 					"/>
					
						<rect x="90.78" y="302.569" transform="matrix(0.3079 -0.9514 0.9514 0.3079 -225.5942 296.3728)" style="fill:#FFFFFF;" width="0.274" height="1.363"/>
					
						<rect x="91.402" y="300.651" transform="matrix(0.307 -0.9517 0.9517 0.307 -223.3439 295.9481)" style="fill:#FFFFFF;" width="0.275" height="1.362"/>
					<polygon style="fill:#FFFFFF;" points="92.853,299.492 91.555,299.072 91.472,299.334 92.765,299.754 					"/>
					<polygon style="fill:#FFFFFF;" points="93.471,297.574 92.177,297.156 92.091,297.414 93.386,297.834 					"/>
					<polygon style="fill:#FFFFFF;" points="92.715,295.498 95.307,296.34 95.389,296.076 92.799,295.236 					"/>
					
						<rect x="93.888" y="292.978" transform="matrix(0.3069 -0.9517 0.9517 0.3069 -214.3181 293.0182)" style="fill:#FFFFFF;" width="0.276" height="1.362"/>
					<polygon style="fill:#FFFFFF;" points="95.337,291.818 94.041,291.398 93.957,291.664 95.251,292.082 					"/>
					<polygon style="fill:#FFFFFF;" points="95.956,289.9 94.662,289.48 94.578,289.744 95.871,290.164 					"/>
					<polygon style="fill:#FFFFFF;" points="96.58,287.982 95.283,287.563 95.199,287.826 96.496,288.246 					"/>
					<polygon style="fill:#FFFFFF;" points="97.201,286.063 95.904,285.645 95.821,285.908 97.116,286.326 					"/>
					
						<rect x="97.642" y="282.916" transform="matrix(0.3069 -0.9517 0.9517 0.3069 -202.7869 290.0815)" style="fill:#FFFFFF;" width="0.276" height="2.722"/>
				</g>
			</g>
			<g>
				<path style="fill:#4A4A4A;" d="M100.737,325.623c2.333,0,4.083,1,4.333,5.125s-2.25,30.834-2.625,34.105
					c-0.375,3.27-4.656,7.225-8.016,7.225H65.963c-3.359,0-7.641-3.955-8.016-7.225c-0.375-3.271-2.875-29.98-2.625-34.105
					s2-5.125,4.333-5.125H100.737z"/>
				<g style="opacity:0.1;">
					<path style="fill:#FFFFFF;" d="M66.051,345.25c0.531,6.477-0.571,11.852-2.462,12.006c-1.891,0.156-3.854-4.969-4.384-11.445
						c-0.531-6.476,0.572-11.853,2.462-12.008S65.52,338.772,66.051,345.25z"/>
					<path style="fill:#FFFFFF;" d="M65.582,362.678c0.156,1.9-0.578,3.514-1.638,3.6c-1.061,0.088-2.047-1.383-2.203-3.285
						c-0.156-1.902,0.578-3.516,1.638-3.602C64.44,359.303,65.426,360.775,65.582,362.678z"/>
				</g>
			</g>
		</g>
	</g>
</g>
<g id="TEXTS">
	<path id="SVGID_x5F_1_x5F_" style="fill:none;" d="M240.74,179.874c0,0,31.376,4,57.376-4.625"/>
	
		<text style="fill:#FFFFFF;stroke:#FFFFFF;stroke-width:0.75;stroke-linecap:round;stroke-linejoin:round;stroke-miterlimit:10; font-family:'NanumPen'; font-size:26px;">	<textPath  xlink:href="#SVGID_x5F_1_x5F_" startOffset="0.195%">
	</textPath>
</text>
</g>
</svg>
